<svg width="41" height="41" viewBox="0 0 41 41" fill="none" xmlns="http://www.w3.org/2000/svg">
<path fill-rule="evenodd" clip-rule="evenodd" d="M30.7646 12.6581H15.6614C12.0087 12.6581 9.7179 15.2447 9.7179 18.9065V28.7858C9.7179 32.4476 11.9961 35.0341 15.6614 35.0341H30.7627C34.4298 35.0341 36.7098 32.4476 36.7098 28.7858V18.9065C36.7098 15.2447 34.4298 12.6581 30.7646 12.6581Z" stroke="#38D9A9" stroke-width="2.50292" stroke-linecap="round" stroke-linejoin="round"/>
<path d="M15.6379 20.1039H30.7808" stroke="#38D9A9" stroke-width="2.50292" stroke-linecap="round" stroke-linejoin="round"/>
<path d="M30.1772 12.6541L27.5311 8.2438C25.6353 5.12145 22.3559 4.06802 19.2084 5.96562L6.27877 13.7472C3.14377 15.6304 2.51245 19.0269 4.39561 22.1746L9.50395 30.6271C9.74206 31.0366 10.0054 31.4045 10.3066 31.7346V31.7473" stroke="#38D9A9" stroke-width="2.50292" stroke-linecap="round" stroke-linejoin="round"/>
</svg>
